<svg xmlns="http://www.w3.org/2000/svg" viewBox="0 0 26.458 2672.292" height="10100" width="100"><path style="fill:none;stroke:#000;stroke-width:.0874233;stroke-miterlimit:4;stroke-dasharray:none" d="M.044.044h9.913v9.913H.044z" transform="matrix(2.64583 0 0 2.64583 0 0)"/><path style="fill:none;stroke:#000;stroke-width:.0874233;stroke-miterlimit:4;stroke-dasharray:none" d="M.044.044h9.913v9.913H.044z" transform="matrix(2.64583 0 0 2.64583 0 26.458)"/><path style="fill:#999;stroke:#000;stroke-width:.00843575;stroke-miterlimit:4;stroke-dasharray:none" d="M.004.004h.092v9.992H.004z" transform="matrix(2.64583 0 0 2.64583 0 26.458)"/><path style="fill:none;stroke:#000;stroke-width:.0874233;stroke-miterlimit:4;stroke-dasharray:none" d="M.044.044h9.913v9.913H.044z" transform="matrix(2.64583 0 0 2.64583 0 52.917)"/><path style="fill:#999;stroke:#000;stroke-width:.0120826;stroke-miterlimit:4;stroke-dasharray:none" d="M.006.006h.188v9.988H.006z" transform="matrix(2.64583 0 0 2.64583 0 52.917)"/><path style="fill:none;stroke:#000;stroke-width:.0874233;stroke-miterlimit:4;stroke-dasharray:none" d="M.044.044h9.913v9.913H.044z" transform="matrix(2.64583 0 0 2.64583 0 79.375)"/><path style="fill:#999;stroke:#000;stroke-width:.014881;stroke-miterlimit:4;stroke-dasharray:none" d="M.007.007h.285v9.985H.007z" transform="matrix(2.64583 0 0 2.64583 0 79.375)"/><path style="fill:none;stroke:#000;stroke-width:.0874233;stroke-miterlimit:4;stroke-dasharray:none" d="M.044.044h9.913v9.913H.044z" transform="matrix(2.64583 0 0 2.64583 0 105.833)"/><path style="fill:#999;stroke:#000;stroke-width:.0172397;stroke-miterlimit:4;stroke-dasharray:none" d="M.009.009h.383v9.983H.009z" transform="matrix(2.64583 0 0 2.64583 0 105.833)"/><path style="fill:none;stroke:#000;stroke-width:.0874233;stroke-miterlimit:4;stroke-dasharray:none" d="M.044.044h9.913v9.913H.044z" transform="matrix(2.64583 0 0 2.64583 0 132.292)"/><path style="fill:#999;stroke:#000;stroke-width:.0193175;stroke-miterlimit:4;stroke-dasharray:none" d="M.01.01h.481v9.981H.01z" transform="matrix(2.64583 0 0 2.64583 0 132.292)"/><path style="fill:none;stroke:#000;stroke-width:.0874233;stroke-miterlimit:4;stroke-dasharray:none" d="M.044.044h9.913v9.913H.044z" transform="matrix(2.64583 0 0 2.64583 0 158.75)"/><path style="fill:#999;stroke:#000;stroke-width:.0211956;stroke-miterlimit:4;stroke-dasharray:none" d="M.011.011H.59V9.99H.011z" transform="matrix(2.64583 0 0 2.64583 0 158.75)"/><path style="fill:none;stroke:#000;stroke-width:.0874233;stroke-miterlimit:4;stroke-dasharray:none" d="M.044.044h9.913v9.913H.044z" transform="matrix(2.64583 0 0 2.64583 0 185.208)"/><path style="fill:#999;stroke:#000;stroke-width:.0229225;stroke-miterlimit:4;stroke-dasharray:none" d="M.011.011h.677v9.977H.011z" transform="matrix(2.64583 0 0 2.64583 0 185.208)"/><path style="fill:none;stroke:#000;stroke-width:.0874233;stroke-miterlimit:4;stroke-dasharray:none" d="M.044.044h9.913v9.913H.044z" transform="matrix(2.64583 0 0 2.64583 0 211.667)"/><path style="fill:#999;stroke:#000;stroke-width:.0245296;stroke-miterlimit:4;stroke-dasharray:none" d="M.012.012h.775v9.975H.012z" transform="matrix(2.64583 0 0 2.64583 0 211.667)"/><path style="fill:none;stroke:#000;stroke-width:.0874233;stroke-miterlimit:4;stroke-dasharray:none" d="M.044.044h9.913v9.913H.044z" transform="matrix(2.64583 0 0 2.64583 0 238.125)"/><path style="fill:#999;stroke:#000;stroke-width:.0260388;stroke-miterlimit:4;stroke-dasharray:none" d="M.013.013h.874v9.974H.013z" transform="matrix(2.64583 0 0 2.64583 0 238.125)"/><path style="fill:none;stroke:#000;stroke-width:.0874233;stroke-miterlimit:4;stroke-dasharray:none" d="M.044.044h9.913v9.913H.044z" transform="matrix(2.64583 0 0 2.64583 0 264.583)"/><path style="fill:#999;stroke:#000;stroke-width:.0274661;stroke-miterlimit:4;stroke-dasharray:none" d="M.014.014h.973v9.973H.014z" transform="matrix(2.64583 0 0 2.64583 0 264.583)"/><path style="fill:none;stroke:#000;stroke-width:.0874233;stroke-miterlimit:4;stroke-dasharray:none" d="M.044.044h9.913v9.913H.044z" transform="matrix(2.64583 0 0 2.64583 0 291.042)"/><path style="fill:#999;stroke:#000;stroke-width:.0288234;stroke-miterlimit:4;stroke-dasharray:none" d="M.014.014h1.071v9.971H.014z" transform="matrix(2.64583 0 0 2.64583 0 291.042)"/><path style="fill:none;stroke:#000;stroke-width:.0874233;stroke-miterlimit:4;stroke-dasharray:none" d="M.044.044h9.913v9.913H.044z" transform="matrix(2.64583 0 0 2.64583 0 317.5)"/><path style="fill:#999;stroke:#000;stroke-width:.0301201;stroke-miterlimit:4;stroke-dasharray:none" d="M.015.015h1.17v9.97H.015z" transform="matrix(2.64583 0 0 2.64583 0 317.5)"/><path style="fill:none;stroke:#000;stroke-width:.0874233;stroke-miterlimit:4;stroke-dasharray:none" d="M.044.044h9.913v9.913H.044z" transform="matrix(2.64583 0 0 2.64583 0 343.958)"/><path style="fill:#999;stroke:#000;stroke-width:.0313637;stroke-miterlimit:4;stroke-dasharray:none" d="M.016.016h1.269v9.969H.016z" transform="matrix(2.64583 0 0 2.64583 0 343.958)"/><path style="fill:none;stroke:#000;stroke-width:.0874233;stroke-miterlimit:4;stroke-dasharray:none" d="M.044.044h9.913v9.913H.044z" transform="matrix(2.64583 0 0 2.64583 0 370.417)"/><path style="fill:#999;stroke:#000;stroke-width:.0325602;stroke-miterlimit:4;stroke-dasharray:none" d="M.016.016h1.367v9.967H.016z" transform="matrix(2.64583 0 0 2.64583 0 370.417)"/><path style="fill:none;stroke:#000;stroke-width:.0874233;stroke-miterlimit:4;stroke-dasharray:none" d="M.044.044h9.913v9.913H.044z" transform="matrix(2.64583 0 0 2.64583 0 396.875)"/><path style="fill:#999;stroke:#000;stroke-width:.0337145;stroke-miterlimit:4;stroke-dasharray:none" d="M.017.017h1.466v9.966H.017z" transform="matrix(2.64583 0 0 2.64583 0 396.875)"/><path style="fill:none;stroke:#000;stroke-width:.0874233;stroke-miterlimit:4;stroke-dasharray:none" d="M.044.044h9.913v9.913H.044z" transform="matrix(2.64583 0 0 2.64583 0 423.333)"/><path style="fill:#999;stroke:#000;stroke-width:.0348308;stroke-miterlimit:4;stroke-dasharray:none" d="M.017.017h1.565v9.965H.017z" transform="matrix(2.64583 0 0 2.64583 0 423.333)"/><path style="fill:none;stroke:#000;stroke-width:.0874233;stroke-miterlimit:4;stroke-dasharray:none" d="M.044.044h9.913v9.913H.044z" transform="matrix(2.64583 0 0 2.64583 0 449.792)"/><path style="fill:#999;stroke:#000;stroke-width:.0359127;stroke-miterlimit:4;stroke-dasharray:none" d="M.018.018h1.664v9.964H.018z" transform="matrix(2.64583 0 0 2.64583 0 449.792)"/><path style="fill:none;stroke:#000;stroke-width:.0874233;stroke-miterlimit:4;stroke-dasharray:none" d="M.044.044h9.913v9.913H.044z" transform="matrix(2.64583 0 0 2.64583 0 476.25)"/><path style="fill:#999;stroke:#000;stroke-width:.0369631;stroke-miterlimit:4;stroke-dasharray:none" d="M.018.018h1.763v9.963H.018z" transform="matrix(2.64583 0 0 2.64583 0 476.25)"/><path style="fill:none;stroke:#000;stroke-width:.0874233;stroke-miterlimit:4;stroke-dasharray:none" d="M.044.044h9.913v9.913H.044z" transform="matrix(2.64583 0 0 2.64583 0 502.708)"/><path style="fill:#999;stroke:#000;stroke-width:.0379845;stroke-miterlimit:4;stroke-dasharray:none" d="M.019.019h1.862v9.962H.019z" transform="matrix(2.64583 0 0 2.64583 0 502.708)"/><path style="fill:none;stroke:#000;stroke-width:.0874233;stroke-miterlimit:4;stroke-dasharray:none" d="M.044.044h9.913v9.913H.044z" transform="matrix(2.64583 0 0 2.64583 0 529.167)"/><path style="fill:#999;stroke:#000;stroke-width:.0389793;stroke-miterlimit:4;stroke-dasharray:none" d="M.019.019H1.98V9.98H.019z" transform="matrix(2.64583 0 0 2.64583 0 529.167)"/><path style="fill:none;stroke:#000;stroke-width:.0874233;stroke-miterlimit:4;stroke-dasharray:none" d="M.044.044h9.913v9.913H.044z" transform="matrix(2.64583 0 0 2.64583 0 555.625)"/><path style="fill:#999;stroke:#000;stroke-width:.0399495;stroke-miterlimit:4;stroke-dasharray:none" d="M.02.02h2.06v9.96H.02z" transform="matrix(2.64583 0 0 2.64583 0 555.625)"/><path style="fill:none;stroke:#000;stroke-width:.0874233;stroke-miterlimit:4;stroke-dasharray:none" d="M.044.044h9.913v9.913H.044z" transform="matrix(2.64583 0 0 2.64583 0 582.083)"/><path style="fill:#999;stroke:#000;stroke-width:.0408967;stroke-miterlimit:4;stroke-dasharray:none" d="M.02.02h2.159v9.959H.02z" transform="matrix(2.64583 0 0 2.64583 0 582.083)"/><path style="fill:none;stroke:#000;stroke-width:.0874233;stroke-miterlimit:4;stroke-dasharray:none" d="M.044.044h9.913v9.913H.044z" transform="matrix(2.64583 0 0 2.64583 0 608.542)"/><path style="fill:#999;stroke:#000;stroke-width:.0418225;stroke-miterlimit:4;stroke-dasharray:none" d="M.021.021h2.258v9.958H.021z" transform="matrix(2.64583 0 0 2.64583 0 608.542)"/><path style="fill:none;stroke:#000;stroke-width:.0874233;stroke-miterlimit:4;stroke-dasharray:none" d="M.044.044h9.913v9.913H.044z" transform="matrix(2.64583 0 0 2.64583 0 635)"/><path style="fill:#999;stroke:#000;stroke-width:.0427283;stroke-miterlimit:4;stroke-dasharray:none" d="M.021.021h2.357v9.957H.021z" transform="matrix(2.64583 0 0 2.64583 0 635)"/><path style="fill:none;stroke:#000;stroke-width:.0874233;stroke-miterlimit:4;stroke-dasharray:none" d="M.044.044h9.913v9.913H.044z" transform="matrix(2.64583 0 0 2.64583 0 661.458)"/><path style="fill:#999;stroke:#000;stroke-width:.0436154;stroke-miterlimit:4;stroke-dasharray:none" d="M.022.022h2.456v9.956H.022z" transform="matrix(2.64583 0 0 2.64583 0 661.458)"/><path style="fill:none;stroke:#000;stroke-width:.0874233;stroke-miterlimit:4;stroke-dasharray:none" d="M.044.044h9.913v9.913H.044z" transform="matrix(2.64583 0 0 2.64583 0 687.917)"/><path style="fill:#999;stroke:#000;stroke-width:.0444849;stroke-miterlimit:4;stroke-dasharray:none" d="M.022.022h2.556v9.956H.022z" transform="matrix(2.64583 0 0 2.64583 0 687.917)"/><path style="fill:none;stroke:#000;stroke-width:.0874233;stroke-miterlimit:4;stroke-dasharray:none" d="M.044.044h9.913v9.913H.044z" transform="matrix(2.64583 0 0 2.64583 0 714.375)"/><path style="fill:#999;stroke:#000;stroke-width:.0453377;stroke-miterlimit:4;stroke-dasharray:none" d="M.023.023h2.655v9.955H.023z" transform="matrix(2.64583 0 0 2.64583 0 714.375)"/><path style="fill:none;stroke:#000;stroke-width:.0874233;stroke-miterlimit:4;stroke-dasharray:none" d="M.044.044h9.913v9.913H.044z" transform="matrix(2.64583 0 0 2.64583 0 740.833)"/><path style="fill:#999;stroke:#000;stroke-width:.0461747;stroke-miterlimit:4;stroke-dasharray:none" d="M.023.023h2.754v9.954H.023z" transform="matrix(2.64583 0 0 2.64583 0 740.833)"/><path style="fill:none;stroke:#000;stroke-width:.0874233;stroke-miterlimit:4;stroke-dasharray:none" d="M.044.044h9.913v9.913H.044z" transform="matrix(2.64583 0 0 2.64583 0 767.292)"/><path style="fill:#999;stroke:#000;stroke-width:.0469969;stroke-miterlimit:4;stroke-dasharray:none" d="M.023.023h2.853v9.953H.023z" transform="matrix(2.64583 0 0 2.64583 0 767.292)"/><path style="fill:none;stroke:#000;stroke-width:.0874233;stroke-miterlimit:4;stroke-dasharray:none" d="M.044.044h9.913v9.913H.044z" transform="matrix(2.64583 0 0 2.64583 0 793.75)"/><path style="fill:#999;stroke:#000;stroke-width:.047805;stroke-miterlimit:4;stroke-dasharray:none" d="M.024.024h2.952v9.952H.024z" transform="matrix(2.64583 0 0 2.64583 0 793.75)"/><path style="fill:none;stroke:#000;stroke-width:.0874233;stroke-miterlimit:4;stroke-dasharray:none" d="M.044.044h9.913v9.913H.044z" transform="matrix(2.64583 0 0 2.64583 0 820.208)"/><path style="fill:#999;stroke:#000;stroke-width:.0485996;stroke-miterlimit:4;stroke-dasharray:none" d="M.024.024h3.051v9.951H.024z" transform="matrix(2.64583 0 0 2.64583 0 820.208)"/><path style="fill:none;stroke:#000;stroke-width:.0874233;stroke-miterlimit:4;stroke-dasharray:none" d="M.044.044h9.913v9.913H.044z" transform="matrix(2.64583 0 0 2.64583 0 846.667)"/><path style="fill:#999;stroke:#000;stroke-width:.0493815;stroke-miterlimit:4;stroke-dasharray:none" d="M.025.025h3.151v9.951H.025z" transform="matrix(2.64583 0 0 2.64583 0 846.667)"/><path style="fill:none;stroke:#000;stroke-width:.0874233;stroke-miterlimit:4;stroke-dasharray:none" d="M.044.044h9.913v9.913H.044z" transform="matrix(2.64583 0 0 2.64583 0 873.125)"/><path style="fill:#999;stroke:#000;stroke-width:.0501512;stroke-miterlimit:4;stroke-dasharray:none" d="M.025.025h3.25v9.95H.025z" transform="matrix(2.64583 0 0 2.64583 0 873.125)"/><path style="fill:none;stroke:#000;stroke-width:.0874233;stroke-miterlimit:4;stroke-dasharray:none" d="M.044.044h9.913v9.913H.044z" transform="matrix(2.64583 0 0 2.64583 0 899.583)"/><path style="fill:#999;stroke:#000;stroke-width:.0509092;stroke-miterlimit:4;stroke-dasharray:none" d="M.025.025h3.349v9.949H.025z" transform="matrix(2.64583 0 0 2.64583 0 899.583)"/><path style="fill:none;stroke:#000;stroke-width:.0874233;stroke-miterlimit:4;stroke-dasharray:none" d="M.044.044h9.913v9.913H.044z" transform="matrix(2.64583 0 0 2.64583 0 926.042)"/><path style="fill:#999;stroke:#000;stroke-width:.0516561;stroke-miterlimit:4;stroke-dasharray:none" d="M.026.026h3.448v9.948H.026z" transform="matrix(2.64583 0 0 2.64583 0 926.042)"/><path style="fill:none;stroke:#000;stroke-width:.0874233;stroke-miterlimit:4;stroke-dasharray:none" d="M.044.044h9.913v9.913H.044z" transform="matrix(2.64583 0 0 2.64583 0 952.5)"/><path style="fill:#999;stroke:#000;stroke-width:.0523924;stroke-miterlimit:4;stroke-dasharray:none" d="M.026.026h3.548v9.948H.026z" transform="matrix(2.64583 0 0 2.64583 0 952.5)"/><path style="fill:none;stroke:#000;stroke-width:.0874233;stroke-miterlimit:4;stroke-dasharray:none" d="M.044.044h9.913v9.913H.044z" transform="matrix(2.64583 0 0 2.64583 0 978.958)"/><path style="fill:#999;stroke:#000;stroke-width:.0531185;stroke-miterlimit:4;stroke-dasharray:none" d="M.027.027h3.647v9.947H.027z" transform="matrix(2.64583 0 0 2.64583 0 978.958)"/><path style="fill:none;stroke:#000;stroke-width:.0874233;stroke-miterlimit:4;stroke-dasharray:none" d="M.044.044h9.913v9.913H.044z" transform="matrix(2.64583 0 0 2.64583 0 1005.417)"/><path style="fill:#999;stroke:#000;stroke-width:.0538347;stroke-miterlimit:4;stroke-dasharray:none" d="M.027.027h3.746v9.946H.027z" transform="matrix(2.64583 0 0 2.64583 0 1005.417)"/><path style="fill:none;stroke:#000;stroke-width:.0874233;stroke-miterlimit:4;stroke-dasharray:none" d="M.044.044h9.913v9.913H.044z" transform="matrix(2.64583 0 0 2.64583 0 1031.875)"/><path style="fill:#999;stroke:#000;stroke-width:.0545416;stroke-miterlimit:4;stroke-dasharray:none" d="M.027.027h3.845v9.945H.027z" transform="matrix(2.64583 0 0 2.64583 0 1031.875)"/><path style="fill:none;stroke:#000;stroke-width:.0874233;stroke-miterlimit:4;stroke-dasharray:none" d="M.044.044h9.913v9.913H.044z" transform="matrix(2.64583 0 0 2.64583 0 1058.333)"/><path style="fill:#999;stroke:#000;stroke-width:.0552394;stroke-miterlimit:4;stroke-dasharray:none" d="M.028.028h3.945v9.945H.028z" transform="matrix(2.64583 0 0 2.64583 0 1058.333)"/><path style="fill:none;stroke:#000;stroke-width:.0874233;stroke-miterlimit:4;stroke-dasharray:none" d="M.044.044h9.913v9.913H.044z" transform="matrix(2.64583 0 0 2.64583 0 1084.792)"/><path style="fill:#999;stroke:#000;stroke-width:.0559284;stroke-miterlimit:4;stroke-dasharray:none" d="M.028.028h4.044v9.944H.028z" transform="matrix(2.64583 0 0 2.64583 0 1084.792)"/><path style="fill:none;stroke:#000;stroke-width:.0874233;stroke-miterlimit:4;stroke-dasharray:none" d="M.044.044h9.913v9.913H.044z" transform="matrix(2.64583 0 0 2.64583 0 1111.25)"/><path style="fill:#999;stroke:#000;stroke-width:.0566091;stroke-miterlimit:4;stroke-dasharray:none" d="M.028.028h4.143v9.943H.028z" transform="matrix(2.64583 0 0 2.64583 0 1111.25)"/><path style="fill:none;stroke:#000;stroke-width:.0874233;stroke-miterlimit:4;stroke-dasharray:none" d="M.044.044h9.913v9.913H.044z" transform="matrix(2.64583 0 0 2.64583 0 1137.708)"/><path style="fill:#999;stroke:#000;stroke-width:.0572817;stroke-miterlimit:4;stroke-dasharray:none" d="M.029.029h4.243v9.943H.029z" transform="matrix(2.64583 0 0 2.64583 0 1137.708)"/><path style="fill:none;stroke:#000;stroke-width:.0874233;stroke-miterlimit:4;stroke-dasharray:none" d="M.044.044h9.913v9.913H.044z" transform="matrix(2.64583 0 0 2.64583 0 1164.167)"/><path style="fill:#999;stroke:#000;stroke-width:.0579464;stroke-miterlimit:4;stroke-dasharray:none" d="M.029.029h4.342v9.942H.029z" transform="matrix(2.64583 0 0 2.64583 0 1164.167)"/><path style="fill:none;stroke:#000;stroke-width:.0874233;stroke-miterlimit:4;stroke-dasharray:none" d="M.044.044h9.913v9.913H.044z" transform="matrix(2.64583 0 0 2.64583 0 1190.625)"/><path style="fill:#999;stroke:#000;stroke-width:.0586036;stroke-miterlimit:4;stroke-dasharray:none" d="M.029.029H4.47V9.97H.029z" transform="matrix(2.64583 0 0 2.64583 0 1190.625)"/><path style="fill:none;stroke:#000;stroke-width:.0874233;stroke-miterlimit:4;stroke-dasharray:none" d="M.044.044h9.913v9.913H.044z" transform="matrix(2.64583 0 0 2.64583 0 1217.083)"/><path style="fill:#999;stroke:#000;stroke-width:.0592535;stroke-miterlimit:4;stroke-dasharray:none" d="M.03.03h4.541v9.941H.03z" transform="matrix(2.64583 0 0 2.64583 0 1217.083)"/><path style="fill:none;stroke:#000;stroke-width:.0874233;stroke-miterlimit:4;stroke-dasharray:none" d="M.044.044h9.913v9.913H.044z" transform="matrix(2.64583 0 0 2.64583 0 1243.542)"/><path style="fill:#999;stroke:#000;stroke-width:.0598964;stroke-miterlimit:4;stroke-dasharray:none" d="M.03.03h4.64v9.94H.03z" transform="matrix(2.64583 0 0 2.64583 0 1243.542)"/><path style="fill:none;stroke:#000;stroke-width:.0874233;stroke-miterlimit:4;stroke-dasharray:none" d="M.044.044h9.913v9.913H.044z" transform="matrix(2.64583 0 0 2.64583 0 1270)"/><path style="fill:#999;stroke:#000;stroke-width:.0605323;stroke-miterlimit:4;stroke-dasharray:none" d="M.03.03h4.739v9.939H.03z" transform="matrix(2.64583 0 0 2.64583 0 1270)"/><path style="fill:none;stroke:#000;stroke-width:.0874233;stroke-miterlimit:4;stroke-dasharray:none" d="M.044.044h9.913v9.913H.044z" transform="matrix(2.64583 0 0 2.64583 0 1296.458)"/><path style="fill:#999;stroke:#000;stroke-width:.0611617;stroke-miterlimit:4;stroke-dasharray:none" d="M.031.031H4.87V9.97H.031z" transform="matrix(2.64583 0 0 2.64583 0 1296.458)"/><path style="fill:none;stroke:#000;stroke-width:.0874233;stroke-miterlimit:4;stroke-dasharray:none" d="M.044.044h9.913v9.913H.044z" transform="matrix(2.64583 0 0 2.64583 0 1322.917)"/><path style="fill:#999;stroke:#000;stroke-width:.0617846;stroke-miterlimit:4;stroke-dasharray:none" d="M.031.031h4.938v9.938H.031z" transform="matrix(2.64583 0 0 2.64583 0 1322.917)"/><path style="fill:none;stroke:#000;stroke-width:.0874233;stroke-miterlimit:4;stroke-dasharray:none" d="M.044.044h9.913v9.913H.044z" transform="matrix(2.64583 0 0 2.64583 0 1349.375)"/><path style="fill:#999;stroke:#000;stroke-width:.0624013;stroke-miterlimit:4;stroke-dasharray:none" d="M.031.031h5.038v9.938H.031z" transform="matrix(2.64583 0 0 2.64583 0 1349.375)"/><path style="fill:none;stroke:#000;stroke-width:.0874233;stroke-miterlimit:4;stroke-dasharray:none" d="M.044.044h9.913v9.913H.044z" transform="matrix(2.64583 0 0 2.64583 0 1375.833)"/><path style="fill:#999;stroke:#000;stroke-width:.0630119;stroke-miterlimit:4;stroke-dasharray:none" d="M.032.032h5.137v9.937H.032z" transform="matrix(2.64583 0 0 2.64583 0 1375.833)"/><path style="fill:none;stroke:#000;stroke-width:.0874233;stroke-miterlimit:4;stroke-dasharray:none" d="M.044.044h9.913v9.913H.044z" transform="matrix(2.64583 0 0 2.64583 0 1402.292)"/><path style="fill:#999;stroke:#000;stroke-width:.0636167;stroke-miterlimit:4;stroke-dasharray:none" d="M.032.032h5.236v9.936H.032z" transform="matrix(2.64583 0 0 2.64583 0 1402.292)"/><path style="fill:none;stroke:#000;stroke-width:.0874233;stroke-miterlimit:4;stroke-dasharray:none" d="M.044.044h9.913v9.913H.044z" transform="matrix(2.64583 0 0 2.64583 0 1428.75)"/><path style="fill:#999;stroke:#000;stroke-width:.0642157;stroke-miterlimit:4;stroke-dasharray:none" d="M.032.032h5.336v9.936H.032z" transform="matrix(2.64583 0 0 2.64583 0 1428.75)"/><path style="fill:none;stroke:#000;stroke-width:.0874233;stroke-miterlimit:4;stroke-dasharray:none" d="M.044.044h9.913v9.913H.044z" transform="matrix(2.64583 0 0 2.64583 0 1455.208)"/><path style="fill:#999;stroke:#000;stroke-width:.0648092;stroke-miterlimit:4;stroke-dasharray:none" d="M.032.032h5.435v9.935H.032z" transform="matrix(2.64583 0 0 2.64583 0 1455.208)"/><path style="fill:none;stroke:#000;stroke-width:.0874233;stroke-miterlimit:4;stroke-dasharray:none" d="M.044.044h9.913v9.913H.044z" transform="matrix(2.64583 0 0 2.64583 0 1481.667)"/><path style="fill:#999;stroke:#000;stroke-width:.0653973;stroke-miterlimit:4;stroke-dasharray:none" d="M.033.033h5.535v9.935H.033z" transform="matrix(2.64583 0 0 2.64583 0 1481.667)"/><path style="fill:none;stroke:#000;stroke-width:.0874233;stroke-miterlimit:4;stroke-dasharray:none" d="M.044.044h9.913v9.913H.044z" transform="matrix(2.64583 0 0 2.64583 0 1508.125)"/><path style="fill:#999;stroke:#000;stroke-width:.0659801;stroke-miterlimit:4;stroke-dasharray:none" d="M.033.033h5.634v9.934H.033z" transform="matrix(2.64583 0 0 2.64583 0 1508.125)"/><path style="fill:none;stroke:#000;stroke-width:.0874233;stroke-miterlimit:4;stroke-dasharray:none" d="M.044.044h9.913v9.913H.044z" transform="matrix(2.64583 0 0 2.64583 0 1534.583)"/><path style="fill:#999;stroke:#000;stroke-width:.0665578;stroke-miterlimit:4;stroke-dasharray:none" d="M.033.033h5.733v9.933H.033z" transform="matrix(2.64583 0 0 2.64583 0 1534.583)"/><path style="fill:none;stroke:#000;stroke-width:.0874233;stroke-miterlimit:4;stroke-dasharray:none" d="M.044.044h9.913v9.913H.044z" transform="matrix(2.64583 0 0 2.64583 0 1561.042)"/><path style="fill:#999;stroke:#000;stroke-width:.0671305;stroke-miterlimit:4;stroke-dasharray:none" d="M.034.034h5.833v9.933H.034z" transform="matrix(2.64583 0 0 2.64583 0 1561.042)"/><path style="fill:none;stroke:#000;stroke-width:.0874233;stroke-miterlimit:4;stroke-dasharray:none" d="M.044.044h9.913v9.913H.044z" transform="matrix(2.64583 0 0 2.64583 0 1587.5)"/><path style="fill:#999;stroke:#000;stroke-width:.0676983;stroke-miterlimit:4;stroke-dasharray:none" d="M.034.034h5.932v9.932H.034z" transform="matrix(2.64583 0 0 2.64583 0 1587.5)"/><path style="fill:none;stroke:#000;stroke-width:.0874233;stroke-miterlimit:4;stroke-dasharray:none" d="M.044.044h9.913v9.913H.044z" transform="matrix(2.64583 0 0 2.64583 0 1613.958)"/><path style="fill:#999;stroke:#000;stroke-width:.0682614;stroke-miterlimit:4;stroke-dasharray:none" d="M.034.034h6.032v9.932H.034z" transform="matrix(2.64583 0 0 2.64583 0 1613.958)"/><path style="fill:none;stroke:#000;stroke-width:.0874233;stroke-miterlimit:4;stroke-dasharray:none" d="M.044.044h9.913v9.913H.044z" transform="matrix(2.64583 0 0 2.64583 0 1640.417)"/><path style="fill:#999;stroke:#000;stroke-width:.0688198;stroke-miterlimit:4;stroke-dasharray:none" d="M.034.034h6.131v9.931H.034z" transform="matrix(2.64583 0 0 2.64583 0 1640.417)"/><path style="fill:none;stroke:#000;stroke-width:.0874233;stroke-miterlimit:4;stroke-dasharray:none" d="M.044.044h9.913v9.913H.044z" transform="matrix(2.64583 0 0 2.64583 0 1666.875)"/><path style="fill:#999;stroke:#000;stroke-width:.0693738;stroke-miterlimit:4;stroke-dasharray:none" d="M.035.035h6.231v9.931H.035z" transform="matrix(2.64583 0 0 2.64583 0 1666.875)"/><path style="fill:none;stroke:#000;stroke-width:.0874233;stroke-miterlimit:4;stroke-dasharray:none" d="M.044.044h9.913v9.913H.044z" transform="matrix(2.64583 0 0 2.64583 0 1693.333)"/><path style="fill:#999;stroke:#000;stroke-width:.0699233;stroke-miterlimit:4;stroke-dasharray:none" d="M.035.035h6.33v9.93H.035z" transform="matrix(2.64583 0 0 2.64583 0 1693.333)"/><path style="fill:none;stroke:#000;stroke-width:.0874233;stroke-miterlimit:4;stroke-dasharray:none" d="M.044.044h9.913v9.913H.044z" transform="matrix(2.64583 0 0 2.64583 0 1719.792)"/><path style="fill:#999;stroke:#000;stroke-width:.0704685;stroke-miterlimit:4;stroke-dasharray:none" d="M.035.035h6.43v9.93H.035z" transform="matrix(2.64583 0 0 2.64583 0 1719.792)"/><path style="fill:none;stroke:#000;stroke-width:.0874233;stroke-miterlimit:4;stroke-dasharray:none" d="M.044.044h9.913v9.913H.044z" transform="matrix(2.64583 0 0 2.64583 0 1746.25)"/><path style="fill:#999;stroke:#000;stroke-width:.0710095;stroke-miterlimit:4;stroke-dasharray:none" d="M.036.036h6.529v9.929H.036z" transform="matrix(2.64583 0 0 2.64583 0 1746.25)"/><path style="fill:none;stroke:#000;stroke-width:.0874233;stroke-miterlimit:4;stroke-dasharray:none" d="M.044.044h9.913v9.913H.044z" transform="matrix(2.64583 0 0 2.64583 0 1772.708)"/><path style="fill:#999;stroke:#000;stroke-width:.0715464;stroke-miterlimit:4;stroke-dasharray:none" d="M.036.036h6.628v9.928H.036z" transform="matrix(2.64583 0 0 2.64583 0 1772.708)"/><path style="fill:none;stroke:#000;stroke-width:.0874233;stroke-miterlimit:4;stroke-dasharray:none" d="M.044.044h9.913v9.913H.044z" transform="matrix(2.64583 0 0 2.64583 0 1799.167)"/><path style="fill:#999;stroke:#000;stroke-width:.0720793;stroke-miterlimit:4;stroke-dasharray:none" d="M.036.036h6.728v9.928H.036z" transform="matrix(2.64583 0 0 2.64583 0 1799.167)"/><path style="fill:none;stroke:#000;stroke-width:.0874233;stroke-miterlimit:4;stroke-dasharray:none" d="M.044.044h9.913v9.913H.044z" transform="matrix(2.64583 0 0 2.64583 0 1825.625)"/><path style="fill:#999;stroke:#000;stroke-width:.0726083;stroke-miterlimit:4;stroke-dasharray:none" d="M.036.036h6.827v9.927H.036z" transform="matrix(2.64583 0 0 2.64583 0 1825.625)"/><path style="fill:none;stroke:#000;stroke-width:.0874233;stroke-miterlimit:4;stroke-dasharray:none" d="M.044.044h9.913v9.913H.044z" transform="matrix(2.64583 0 0 2.64583 0 1852.083)"/><path style="fill:#999;stroke:#000;stroke-width:.0731334;stroke-miterlimit:4;stroke-dasharray:none" d="M.037.037h6.927v9.927H.037z" transform="matrix(2.64583 0 0 2.64583 0 1852.083)"/><path style="fill:none;stroke:#000;stroke-width:.0874233;stroke-miterlimit:4;stroke-dasharray:none" d="M.044.044h9.913v9.913H.044z" transform="matrix(2.64583 0 0 2.64583 0 1878.542)"/><path style="fill:#999;stroke:#000;stroke-width:.0736547;stroke-miterlimit:4;stroke-dasharray:none" d="M.037.037h7.026v9.926H.037z" transform="matrix(2.64583 0 0 2.64583 0 1878.542)"/><path style="fill:none;stroke:#000;stroke-width:.0874233;stroke-miterlimit:4;stroke-dasharray:none" d="M.044.044h9.913v9.913H.044z" transform="matrix(2.64583 0 0 2.64583 0 1905)"/><path style="fill:#999;stroke:#000;stroke-width:.0741724;stroke-miterlimit:4;stroke-dasharray:none" d="M.037.037h7.126v9.926H.037z" transform="matrix(2.64583 0 0 2.64583 0 1905)"/><path style="fill:none;stroke:#000;stroke-width:.0874233;stroke-miterlimit:4;stroke-dasharray:none" d="M.044.044h9.913v9.913H.044z" transform="matrix(2.64583 0 0 2.64583 0 1931.458)"/><path style="fill:#999;stroke:#000;stroke-width:.0746864;stroke-miterlimit:4;stroke-dasharray:none" d="M.037.037h7.225v9.925H.037z" transform="matrix(2.64583 0 0 2.64583 0 1931.458)"/><path style="fill:none;stroke:#000;stroke-width:.0874233;stroke-miterlimit:4;stroke-dasharray:none" d="M.044.044h9.913v9.913H.044z" transform="matrix(2.64583 0 0 2.64583 0 1957.917)"/><path style="fill:#999;stroke:#000;stroke-width:.0751969;stroke-miterlimit:4;stroke-dasharray:none" d="M.038.038h7.325v9.925H.038z" transform="matrix(2.64583 0 0 2.64583 0 1957.917)"/><path style="fill:none;stroke:#000;stroke-width:.0874233;stroke-miterlimit:4;stroke-dasharray:none" d="M.044.044h9.913v9.913H.044z" transform="matrix(2.64583 0 0 2.64583 0 1984.375)"/><path style="fill:#999;stroke:#000;stroke-width:.075704;stroke-miterlimit:4;stroke-dasharray:none" d="M.038.038h7.424v9.924H.038z" transform="matrix(2.64583 0 0 2.64583 0 1984.375)"/><path style="fill:none;stroke:#000;stroke-width:.0874233;stroke-miterlimit:4;stroke-dasharray:none" d="M.044.044h9.913v9.913H.044z" transform="matrix(2.64583 0 0 2.64583 0 2010.833)"/><path style="fill:#999;stroke:#000;stroke-width:.0762076;stroke-miterlimit:4;stroke-dasharray:none" d="M.038.038h7.524v9.924H.038z" transform="matrix(2.64583 0 0 2.64583 0 2010.833)"/><path style="fill:none;stroke:#000;stroke-width:.0874233;stroke-miterlimit:4;stroke-dasharray:none" d="M.044.044h9.913v9.913H.044z" transform="matrix(2.64583 0 0 2.64583 0 2037.292)"/><path style="fill:#999;stroke:#000;stroke-width:.0767079;stroke-miterlimit:4;stroke-dasharray:none" d="M.038.038h7.623v9.923H.038z" transform="matrix(2.64583 0 0 2.64583 0 2037.292)"/><path style="fill:none;stroke:#000;stroke-width:.0874233;stroke-miterlimit:4;stroke-dasharray:none" d="M.044.044h9.913v9.913H.044z" transform="matrix(2.64583 0 0 2.64583 0 2063.75)"/><path style="fill:#999;stroke:#000;stroke-width:.077205;stroke-miterlimit:4;stroke-dasharray:none" d="M.039.039h7.723v9.923H.039z" transform="matrix(2.64583 0 0 2.64583 0 2063.75)"/><path style="fill:none;stroke:#000;stroke-width:.0874233;stroke-miterlimit:4;stroke-dasharray:none" d="M.044.044h9.913v9.913H.044z" transform="matrix(2.64583 0 0 2.64583 0 2090.208)"/><path style="fill:#999;stroke:#000;stroke-width:.0776988;stroke-miterlimit:4;stroke-dasharray:none" d="M.039.039h7.822v9.922H.039z" transform="matrix(2.64583 0 0 2.64583 0 2090.208)"/><path style="fill:none;stroke:#000;stroke-width:.0874233;stroke-miterlimit:4;stroke-dasharray:none" d="M.044.044h9.913v9.913H.044z" transform="matrix(2.64583 0 0 2.64583 0 2116.667)"/><path style="fill:#999;stroke:#000;stroke-width:.0781896;stroke-miterlimit:4;stroke-dasharray:none" d="M.039.039h7.922v9.922H.039z" transform="matrix(2.64583 0 0 2.64583 0 2116.667)"/><path style="fill:none;stroke:#000;stroke-width:.0874233;stroke-miterlimit:4;stroke-dasharray:none" d="M.044.044h9.913v9.913H.044z" transform="matrix(2.64583 0 0 2.64583 0 2143.125)"/><path style="fill:#999;stroke:#000;stroke-width:.0786772;stroke-miterlimit:4;stroke-dasharray:none" d="M.039.039H8.06V9.96H.039z" transform="matrix(2.64583 0 0 2.64583 0 2143.125)"/><path style="fill:none;stroke:#000;stroke-width:.0874233;stroke-miterlimit:4;stroke-dasharray:none" d="M.044.044h9.913v9.913H.044z" transform="matrix(2.64583 0 0 2.64583 0 2169.583)"/><path style="fill:#999;stroke:#000;stroke-width:.0791618;stroke-miterlimit:4;stroke-dasharray:none" d="M.04.04h8.121v9.921H.04z" transform="matrix(2.64583 0 0 2.64583 0 2169.583)"/><path style="fill:none;stroke:#000;stroke-width:.0874233;stroke-miterlimit:4;stroke-dasharray:none" d="M.044.044h9.913v9.913H.044z" transform="matrix(2.64583 0 0 2.64583 0 2196.042)"/><path style="fill:#999;stroke:#000;stroke-width:.0796435;stroke-miterlimit:4;stroke-dasharray:none" d="M.04.04h8.22v9.92H.04z" transform="matrix(2.64583 0 0 2.64583 0 2196.042)"/><path style="fill:none;stroke:#000;stroke-width:.0874233;stroke-miterlimit:4;stroke-dasharray:none" d="M.044.044h9.913v9.913H.044z" transform="matrix(2.64583 0 0 2.64583 0 2222.5)"/><path style="fill:#999;stroke:#000;stroke-width:.0801222;stroke-miterlimit:4;stroke-dasharray:none" d="M.04.04h8.32v9.92H.04z" transform="matrix(2.64583 0 0 2.64583 0 2222.5)"/><path style="fill:none;stroke:#000;stroke-width:.0874233;stroke-miterlimit:4;stroke-dasharray:none" d="M.044.044h9.913v9.913H.044z" transform="matrix(2.64583 0 0 2.64583 0 2248.958)"/><path style="fill:#999;stroke:#000;stroke-width:.080598;stroke-miterlimit:4;stroke-dasharray:none" d="M.04.04h8.419v9.919H.04z" transform="matrix(2.64583 0 0 2.64583 0 2248.958)"/><path style="fill:none;stroke:#000;stroke-width:.0874233;stroke-miterlimit:4;stroke-dasharray:none" d="M.044.044h9.913v9.913H.044z" transform="matrix(2.64583 0 0 2.64583 0 2275.417)"/><path style="fill:#999;stroke:#000;stroke-width:.0810711;stroke-miterlimit:4;stroke-dasharray:none" d="M.041.041H8.56V9.96H.041z" transform="matrix(2.64583 0 0 2.64583 0 2275.417)"/><path style="fill:#999;stroke:#000;stroke-width:.0810711;stroke-miterlimit:4;stroke-dasharray:none" d="M.041.041H8.56V9.96H.041z" transform="matrix(2.64583 0 0 2.64583 0 2275.417)"/><path style="fill:#999;stroke:#000;stroke-width:.0810711;stroke-miterlimit:4;stroke-dasharray:none" d="M.041.041H8.56V9.96H.041z" transform="matrix(2.64583 0 0 2.64583 0 2275.417)"/><path style="fill:none;stroke:#000;stroke-width:.0874233;stroke-miterlimit:4;stroke-dasharray:none" d="M.044.044h9.913v9.913H.044z" transform="matrix(2.64583 0 0 2.64583 0 2301.875)"/><path style="fill:#999;stroke:#000;stroke-width:.0815414;stroke-miterlimit:4;stroke-dasharray:none" d="M.041.041h8.618v9.918H.041z" transform="matrix(2.64583 0 0 2.64583 0 2301.875)"/><path style="fill:none;stroke:#000;stroke-width:.0874233;stroke-miterlimit:4;stroke-dasharray:none" d="M.044.044h9.913v9.913H.044z" transform="matrix(2.64583 0 0 2.64583 0 2328.333)"/><path style="fill:#999;stroke:#000;stroke-width:.0820089;stroke-miterlimit:4;stroke-dasharray:none" d="M.041.041h8.718v9.918H.041z" transform="matrix(2.64583 0 0 2.64583 0 2328.333)"/><path style="fill:none;stroke:#000;stroke-width:.0874233;stroke-miterlimit:4;stroke-dasharray:none" d="M.044.044h9.913v9.913H.044z" transform="matrix(2.64583 0 0 2.64583 0 2354.792)"/><path style="fill:#999;stroke:#000;stroke-width:.0824738;stroke-miterlimit:4;stroke-dasharray:none" d="M.041.041h8.818v9.918H.041z" transform="matrix(2.64583 0 0 2.64583 0 2354.792)"/><path style="fill:none;stroke:#000;stroke-width:.0874233;stroke-miterlimit:4;stroke-dasharray:none" d="M.044.044h9.913v9.913H.044z" transform="matrix(2.64583 0 0 2.64583 0 2381.25)"/><path style="fill:#999;stroke:#000;stroke-width:.0829361;stroke-miterlimit:4;stroke-dasharray:none" d="M.041.041h8.917v9.917H.041z" transform="matrix(2.64583 0 0 2.64583 0 2381.25)"/><path style="fill:none;stroke:#000;stroke-width:.0874233;stroke-miterlimit:4;stroke-dasharray:none" d="M.044.044h9.913v9.913H.044z" transform="matrix(2.64583 0 0 2.64583 0 2407.708)"/><path style="fill:#999;stroke:#000;stroke-width:.0833958;stroke-miterlimit:4;stroke-dasharray:none" d="M.042.042h9.017v9.917H.042z" transform="matrix(2.64583 0 0 2.64583 0 2407.708)"/><path style="fill:none;stroke:#000;stroke-width:.0874233;stroke-miterlimit:4;stroke-dasharray:none" d="M.044.044h9.913v9.913H.044z" transform="matrix(2.64583 0 0 2.64583 0 2434.167)"/><path style="fill:#999;stroke:#000;stroke-width:.0838529;stroke-miterlimit:4;stroke-dasharray:none" d="M.042.042h9.116v9.916H.042z" transform="matrix(2.64583 0 0 2.64583 0 2434.167)"/><path style="fill:none;stroke:#000;stroke-width:.0874233;stroke-miterlimit:4;stroke-dasharray:none" d="M.044.044h9.913v9.913H.044z" transform="matrix(2.64583 0 0 2.64583 0 2460.625)"/><path style="fill:#999;stroke:#000;stroke-width:.0843076;stroke-miterlimit:4;stroke-dasharray:none" d="M.042.042h9.216v9.916H.042z" transform="matrix(2.64583 0 0 2.64583 0 2460.625)"/><path style="fill:none;stroke:#000;stroke-width:.0874233;stroke-miterlimit:4;stroke-dasharray:none" d="M.044.044h9.913v9.913H.044z" transform="matrix(2.64583 0 0 2.64583 0 2487.083)"/><path style="fill:#999;stroke:#000;stroke-width:.0847598;stroke-miterlimit:4;stroke-dasharray:none" d="M.042.042h9.315v9.915H.042z" transform="matrix(2.64583 0 0 2.64583 0 2487.083)"/><path style="fill:none;stroke:#000;stroke-width:.0874233;stroke-miterlimit:4;stroke-dasharray:none" d="M.044.044h9.913v9.913H.044z" transform="matrix(2.64583 0 0 2.64583 0 2513.542)"/><path style="fill:#999;stroke:#000;stroke-width:.0852095;stroke-miterlimit:4;stroke-dasharray:none" d="M.043.043h9.415v9.915H.043z" transform="matrix(2.64583 0 0 2.64583 0 2513.542)"/><path style="fill:none;stroke:#000;stroke-width:.0874233;stroke-miterlimit:4;stroke-dasharray:none" d="M.044.044h9.913v9.913H.044z" transform="matrix(2.64583 0 0 2.64583 0 2540)"/><path style="fill:#999;stroke:#000;stroke-width:.0856569;stroke-miterlimit:4;stroke-dasharray:none" d="M.043.043h9.514v9.914H.043z" transform="matrix(2.64583 0 0 2.64583 0 2540)"/><path style="fill:#999;stroke:#000;stroke-width:.0856569;stroke-miterlimit:4;stroke-dasharray:none" d="M.043.043h9.514v9.914H.043z" transform="matrix(2.64583 0 0 2.64583 0 2540)"/><path style="fill:none;stroke:#000;stroke-width:.0874233;stroke-miterlimit:4;stroke-dasharray:none" d="M.044.044h9.913v9.913H.044z" transform="matrix(2.64583 0 0 2.64583 0 2566.458)"/><path style="fill:#999;stroke:#000;stroke-width:.0861019;stroke-miterlimit:4;stroke-dasharray:none" d="M.043.043h9.614v9.914H.043z" transform="matrix(2.64583 0 0 2.64583 0 2566.458)"/><path style="fill:none;stroke:#000;stroke-width:.0874233;stroke-miterlimit:4;stroke-dasharray:none" d="M.044.044h9.913v9.913H.044z" transform="matrix(2.64583 0 0 2.64583 0 2592.917)"/><path style="fill:#999;stroke:#000;stroke-width:.0865447;stroke-miterlimit:4;stroke-dasharray:none" d="M.043.043h9.713v9.913H.043z" transform="matrix(2.64583 0 0 2.64583 0 2592.917)"/><path style="fill:none;stroke:#000;stroke-width:.0874233;stroke-miterlimit:4;stroke-dasharray:none" d="M.044.044h9.913v9.913H.044z" transform="matrix(2.64583 0 0 2.64583 0 2619.375)"/><path style="fill:#999;stroke:#000;stroke-width:.0869852;stroke-miterlimit:4;stroke-dasharray:none" d="M.043.043h9.813v9.913H.043z" transform="matrix(2.64583 0 0 2.64583 0 2619.375)"/><path style="fill:none;stroke:#000;stroke-width:.0874233;stroke-miterlimit:4;stroke-dasharray:none" d="M.044.044h9.913v9.913H.044z" transform="matrix(2.64583 0 0 2.64583 0 2645.833)"/><path style="fill:#999;stroke:#000;stroke-width:.0874234;stroke-miterlimit:4;stroke-dasharray:none" d="M.044.044h9.913v9.913H.044z" transform="matrix(2.64583 0 0 2.64583 0 2645.833)"/></svg>